<?xml version="1.0" encoding="utf-8"?>
<!-- Generator: Adobe Illustrator 14.0.0, SVG Export Plug-In . SVG Version: 6.00 Build 43363)  -->
<!DOCTYPE svg PUBLIC "-//W3C//DTD SVG 1.1//EN" "http://www.w3.org/Graphics/SVG/1.1/DTD/svg11.dtd">
<svg version="1.1" id="Layer_1" xmlns="http://www.w3.org/2000/svg" xmlns:xlink="http://www.w3.org/1999/xlink" viewBox="0 0 500 500">
<g id="apple" transform="matrix(0.73, 0, 0, 0.72, -110, -790)">
	<path fill-rule="evenodd" clip-rule="evenodd" fill="#F16364" d="M461.615,1359.534c-115.35-48.46-200,33.92-200,144.38
		s89.54,196,200,196s200-85.54,200-196S576.965,1311.074,461.615,1359.534z"/>
	
		<path fill-rule="evenodd" clip-rule="evenodd" fill="none" stroke="#F1F2F2" stroke-width="20" stroke-linecap="round" stroke-linejoin="round" stroke-miterlimit="10" d="
		M610.589,1485.697c0.693,6.046,1.026,12.132,1.025,18.217"/>
	
		<path fill-rule="evenodd" clip-rule="evenodd" fill="none" stroke="#F1F2F2" stroke-width="20" stroke-linecap="round" stroke-linejoin="round" stroke-miterlimit="10" d="
		M480.981,1405.632c18.403-7.732,38.835-12.442,58.813-9.333c17.213,2.679,32.481,11.535,43.997,24.518
		c9.914,11.178,16.906,24.716,21.363,38.921"/>
	
		<path fill-rule="evenodd" clip-rule="evenodd" fill="none" stroke="#ED1C24" stroke-width="20" stroke-linecap="round" stroke-linejoin="round" stroke-miterlimit="10" d="
		M661.242,1516.215c0.089-1.47,0.163-2.941,0.22-4.414"/>
	
		<path fill-rule="evenodd" clip-rule="evenodd" fill="none" stroke="#ED1C24" stroke-width="20" stroke-linecap="round" stroke-linejoin="round" stroke-miterlimit="10" d="
		M637.604,1599.289c10.065-18.23,17.015-38.144,20.619-58.649"/>
	
		<path fill-rule="evenodd" clip-rule="evenodd" fill="none" stroke="#ED1C24" stroke-width="20" stroke-linecap="round" stroke-linejoin="round" stroke-miterlimit="10" d="
		M660.907,1481.316c-4.075-38.401-19.982-77.081-48.723-103.587c-27.972-25.797-65.184-36.057-102.604-30.95
		c-10.868,1.482-21.569,4.032-32.055,7.223c-4.874,1.483-9.958,3.985-15.065,4.382c-4.753,0.369-9.425-1.114-13.779-2.865
		c-4.432-1.782-8.677-4.097-13.221-5.593c-5-1.646-10.344-1.895-15.493-2.855c-10.707-1.999-21.102-3.07-32.004-2.338
		c-20.617,1.386-41.424,7.447-58.37,19.483c-16.757,11.902-31.768,25.466-43.146,42.716c-22.606,34.27-29.913,76.725-25.143,117.104
		c4.726,40.006,21.168,78.217,47.701,108.604c25.688,29.42,60.118,50.914,97.652,61.592c40.855,11.621,87.831,10.065,127.285-6.087
		c31.635-12.952,61.002-33.233,83.318-59.343"/>
	<g>
		
			<path fill-rule="evenodd" clip-rule="evenodd" fill="#39B54A" stroke="#00A651" stroke-width="20" stroke-linecap="round" stroke-linejoin="round" stroke-miterlimit="10" d="
			M548.927,1202.727c-43.656,26.376-70.461,66.116-70.246,99.061l190.612-115.163
			C640.231,1171.108,592.583,1176.352,548.927,1202.727z"/>
		
			<path fill-rule="evenodd" clip-rule="evenodd" fill="#39B54A" stroke="#00A651" stroke-width="20" stroke-linecap="round" stroke-linejoin="round" stroke-miterlimit="10" d="
			M548.927,1202.727c-43.656,26.376-70.461,66.116-70.246,99.061l190.612-115.163
			C640.231,1171.108,592.583,1176.352,548.927,1202.727z"/>
		
			<path fill-rule="evenodd" clip-rule="evenodd" fill="#39B54A" stroke="#00A651" stroke-width="20" stroke-linecap="round" stroke-linejoin="round" stroke-miterlimit="10" d="
			M599.048,1285.685c-43.656,26.376-91.304,31.618-120.367,16.103l190.612-115.163
			C669.51,1219.568,642.704,1259.309,599.048,1285.685z"/>
	</g>
	
		<path fill-rule="evenodd" clip-rule="evenodd" fill="none" stroke="#00A651" stroke-width="20" stroke-linecap="round" stroke-linejoin="round" stroke-miterlimit="10" d="
		M416.841,1219.02c74.445,38.928,44.891,159.386,44.891,159.386"/>
</g>
</svg>
