<?xml version="1.0" encoding="utf-8"?>
<!-- Generator: Adobe Illustrator 19.1.0, SVG Export Plug-In . SVG Version: 6.00 Build 0)  -->
<!DOCTYPE svg PUBLIC "-//W3C//DTD SVG 1.1//EN" "http://www.w3.org/Graphics/SVG/1.1/DTD/svg11.dtd">
<svg version="1.1" id="Layer_1" xmlns="http://www.w3.org/2000/svg" xmlns:xlink="http://www.w3.org/1999/xlink" viewBox="0 0 500 500">
<g id="pen" transform="matrix(6.93, 0, 0, 6.92, -2050, -280)">
<path fill="#00A651" d="M352.5,60.8l-5,5c0,0,0,0,0,0c0,0,0,0,0,0l-2.8,2.8c0,0,0,0,0,0c0,0,0,0,0,0l-24.1,24.1
	c-0.1,0.1-0.2,0.2-0.4,0.2l-12.9,5c-0.1,0-0.2,0.1-0.3,0.1c-0.3,0-0.5-0.1-0.7-0.3c-0.3-0.3-0.4-0.7-0.2-1l5-12.9
	c0.1-0.1,0.1-0.3,0.2-0.4l31.9-31.9c0.9-0.9,2.2-1.5,3.5-1.5c1.3,0,2.6,0.5,3.5,1.5l2.2,2.3C354.5,55.7,354.5,58.9,352.5,60.8z
	 M308.6,95.4l4.3-1.7l-2.6-2.6L308.6,95.4z M312.8,84.6l-2.2,5.5l3.2,3.2l5.5-2.2l23.3-23.2l-6.5-6.5L312.8,84.6z M337.5,60l6.5,6.5
	l1.4-1.4l-6.5-6.5L337.5,60z M351.1,55.1l-2.2-2.3c-1.1-1.1-3.1-1.1-4.3,0l-4.3,4.3l6.5,6.5l4.3-4.3
	C352.3,58.2,352.3,56.3,351.1,55.1z M350.4,66.4l-13,13l-0.7-0.7l13-13L350.4,66.4z"/>
</g>
</svg>
