<?xml version="1.0" encoding="utf-8"?>
<!-- Generator: Adobe Illustrator 14.0.0, SVG Export Plug-In . SVG Version: 6.00 Build 43363)  -->
<!DOCTYPE svg PUBLIC "-//W3C//DTD SVG 1.1//EN" "http://www.w3.org/Graphics/SVG/1.1/DTD/svg11.dtd">
<svg version="1.1" id="Layer_1" xmlns="http://www.w3.org/2000/svg" xmlns:xlink="http://www.w3.org/1999/xlink" viewBox="0 0 500 500">
<g id="pineapple" transform="matrix(0.73, 0, 0, 0.65, -85, -80)">
	<g>
		<path fill-rule="evenodd" clip-rule="evenodd" fill="#39B54A" d="M382.417,328.686c1.667-8.653,2.54-17.594,2.54-26.732
			c0-45.549-21.638-86.033-55.2-111.752c65.78,11.797,115.698,69.312,115.698,138.484H382.417z"/>
		<path fill="#00A651" d="M329.756,190.202c65.781,11.797,115.699,69.312,115.699,138.483h-63.038
			c1.667-8.652,2.54-17.593,2.54-26.731C384.957,256.405,363.319,215.92,329.756,190.202 M329.748,170.2
			c-7.807,0-15.048,4.584-18.289,11.926c-3.726,8.442-1.192,18.338,6.132,23.951c30.101,23.067,47.365,58.013,47.365,95.877
			c0,7.725-0.733,15.446-2.178,22.948c-1.129,5.859,0.417,11.917,4.217,16.518c3.799,4.602,9.455,7.266,15.422,7.266h63.038
			c11.045,0,20-8.954,20-20c0-37.922-13.462-74.738-37.905-103.666c-24.146-28.576-57.623-47.933-94.263-54.504
			C332.103,170.304,330.918,170.2,329.748,170.2L329.748,170.2z"/>
		<path fill-rule="evenodd" clip-rule="evenodd" fill="#39B54A" d="M476.038,328.686c-1.667-8.653-2.539-17.594-2.539-26.731
			c0-45.549,21.638-86.034,55.2-111.752C462.919,202,413.001,259.515,413.001,328.686H476.038z"/>
		<path fill="#00A651" d="M528.699,190.203c-33.562,25.718-55.2,66.203-55.2,111.752c0,9.138,0.872,18.079,2.539,26.731h-63.037
			C413.001,259.515,462.919,202,528.699,190.203 M528.708,170.201c-1.17,0-2.355,0.103-3.539,0.315
			c-36.64,6.571-70.116,25.927-94.263,54.504c-24.444,28.927-37.905,65.743-37.905,103.666c0,11.045,8.955,20,20,20h63.037
			c5.967,0,11.623-2.665,15.422-7.266c3.8-4.602,5.346-10.659,4.217-16.518c-1.446-7.502-2.178-15.223-2.178-22.948
			c0-37.865,17.264-72.811,47.365-95.877c7.325-5.613,9.858-15.508,6.132-23.951C543.756,174.785,536.515,170.201,528.708,170.201
			L528.708,170.201z"/>
		<path fill-rule="evenodd" clip-rule="evenodd" fill="#39B54A" d="M382.417,417.927c1.667-8.652,2.54-17.593,2.54-26.731
			c0-45.549-21.638-86.033-55.2-111.752c65.78,11.797,115.698,69.312,115.698,138.483H382.417z"/>
		<path fill="#00A651" d="M329.756,279.444c65.781,11.797,115.699,69.312,115.699,138.483h-63.038
			c1.667-8.652,2.54-17.593,2.54-26.731C384.957,345.646,363.319,305.163,329.756,279.444 M329.748,259.442
			c-7.807,0-15.048,4.584-18.289,11.926c-3.726,8.442-1.192,18.338,6.132,23.951c30.101,23.067,47.365,58.013,47.365,95.877
			c0,7.725-0.733,15.446-2.178,22.948c-1.129,5.859,0.417,11.917,4.217,16.518s9.455,7.266,15.422,7.266h63.038
			c11.045,0,20-8.954,20-20c0-37.922-13.462-74.738-37.905-103.666c-24.146-28.576-57.623-47.933-94.263-54.504
			C332.103,259.545,330.918,259.442,329.748,259.442L329.748,259.442z"/>
		<path fill-rule="evenodd" clip-rule="evenodd" fill="#39B54A" d="M476.038,417.928c-1.667-8.653-2.539-17.594-2.539-26.731
			c0-45.549,21.638-86.034,55.2-111.752c-65.78,11.797-115.698,69.313-115.698,138.484H476.038z"/>
		<path fill="#00A651" d="M528.699,279.445c-33.562,25.718-55.2,66.203-55.2,111.752c0,9.138,0.872,18.079,2.539,26.731h-63.037
			C413.001,348.757,462.919,291.242,528.699,279.445 M528.708,259.443c-1.17,0-2.355,0.104-3.539,0.316
			c-36.64,6.571-70.116,25.927-94.263,54.504c-24.444,28.927-37.905,65.743-37.905,103.666c0,11.045,8.955,20,20,20h63.037
			c5.967,0,11.623-2.665,15.422-7.266c3.8-4.602,5.346-10.659,4.217-16.518c-1.446-7.502-2.178-15.223-2.178-22.948
			c0-37.865,17.264-72.811,47.365-95.877c7.325-5.613,9.858-15.509,6.132-23.951C543.756,264.027,536.515,259.443,528.708,259.443
			L528.708,259.443z"/>
	</g>
	<path fill-rule="evenodd" clip-rule="evenodd" fill="#FFF6B6" d="M579.327,728.677c0,55.229-44.771,100-100,100h-100
		c-55.229,0-100-44.771-100-100v-200c0-55.229,44.771-100,100-100h100c55.229,0,100,44.771,100,100V728.677z"/>
	<g>
		
			<path fill-rule="evenodd" clip-rule="evenodd" fill="none" stroke="#FFCE06" stroke-width="20" stroke-linecap="round" stroke-linejoin="round" stroke-miterlimit="10" d="
			M579.885,699.095c1.442,22.582,0.442,46.582-7.558,68.582c-7,16-17,30-32,41c-6,5-13,8-20,12c-5,2-11,3-16,4c-4,2-9,2-13,3
			c-43,4-85,3-128,0c-9-1-17-4-25-7c-19-9-35-22-44-40c-5-8-10-16-12-25c0-4-2-9-2-13c-2-77-4-153,0-230c5-32,26-61,56-75
			c12-5,26-7,39-8c39-3,78-2,117,0c25,2,47,15,64,34c16,18,24,42,23,65"/>
		
			<path fill-rule="evenodd" clip-rule="evenodd" fill="none" stroke="#FFF200" stroke-width="20" stroke-linecap="round" stroke-linejoin="round" stroke-miterlimit="10" d="
			M579.327,665.655c0,1.837,0.01,3.675,0.028,5.512"/>
		
			<path fill-rule="evenodd" clip-rule="evenodd" fill="none" stroke="#FFF200" stroke-width="20" stroke-linecap="round" stroke-linejoin="round" stroke-miterlimit="10" d="
			M579.327,574.79c0,20.888,0,42.888,0,63.712"/>
	</g>
	<g>
		<path fill="none" stroke="#FFF200" stroke-width="20" stroke-linecap="round" stroke-linejoin="round" stroke-miterlimit="10" d="
			M319.327,748.677c18.332,0,18.332,20,36.664,20s18.332-20,36.665-20c18.333,0,18.333,20,36.666,20c18.333,0,18.333-20,36.665-20
			c18.335,0,18.335,20,36.67,20s18.335-20,36.67-20"/>
		<path fill="none" stroke="#FFF200" stroke-width="20" stroke-linecap="round" stroke-linejoin="round" stroke-miterlimit="10" d="
			M319.327,683.677c18.332,0,18.332,20,36.664,20s18.332-20,36.665-20c18.333,0,18.333,20,36.666,20c18.333,0,18.333-20,36.665-20
			c18.335,0,18.335,20,36.67,20s18.335-20,36.67-20"/>
		<path fill="none" stroke="#FFF200" stroke-width="20" stroke-linecap="round" stroke-linejoin="round" stroke-miterlimit="10" d="
			M319.327,618.677c18.332,0,18.332,20,36.664,20s18.332-20,36.665-20c18.333,0,18.333,20,36.666,20c18.333,0,18.333-20,36.665-20
			c18.335,0,18.335,20,36.67,20s18.335-20,36.67-20"/>
		<path fill="none" stroke="#FFF200" stroke-width="20" stroke-linecap="round" stroke-linejoin="round" stroke-miterlimit="10" d="
			M319.327,553.677c18.332,0,18.332,20,36.664,20s18.332-20,36.665-20c18.333,0,18.333,20,36.666,20c18.333,0,18.333-20,36.665-20
			c18.335,0,18.335,20,36.67,20s18.335-20,36.67-20"/>
		<path fill="none" stroke="#FFF200" stroke-width="20" stroke-linecap="round" stroke-linejoin="round" stroke-miterlimit="10" d="
			M319.327,488.677c18.332,0,18.332,20,36.664,20s18.332-20,36.665-20c18.333,0,18.333,20,36.666,20c18.333,0,18.333-20,36.665-20
			c18.335,0,18.335,20,36.67,20s18.335-20,36.67-20"/>
	</g>
</g>
</svg>
